# xmcd
#
# Track frame offsets: 
#        150
#        14406
#        28836
#        48644
#        61701
#        82735
#        94530
#        110663
#        127963
#        138262
#        157610
#        179068
#        193609
#        213305
#
# Disc length: 3082 seconds
#
# Revision: 0
# Processed by: cddbd v1.5.2PL0 Copyright (c) Steve Scherf et al.
# Submitted via: ExactAudioCopy v0.95b4
#
DISCID=b20c080e
DTITLE=Donald Fuller - The Texas Twister
DYEAR=2007
DGENRE=Country
TTITLE0=When I Hear There She Goes (I Fall To Pieces)
TTITLE1=That Old Flame Still Lights My Fire
TTITLE2=You Hurt The Fool Out Of Me
TTITLE3=The Texas Twister
TTITLE4=Does Anyone Remember My Daddy?
TTITLE5=Callin' Dr. Phil
TTITLE6=Nothin' To It
TTITLE7=It's All Comin' Back To Me Now
TTITLE8='Riginal Recipe
TTITLE9=Bubba Louise
TTITLE10=When My Heart Is Ready
TTITLE11=My Train Of Thought (Keeps Jumpin' The Track)
TTITLE12=It Wouldn't Hurt
TTITLE13=First Thing After Last Call
EXTD=
EXTT0=
EXTT1=
EXTT2=
EXTT3=
EXTT4=
EXTT5=
EXTT6=
EXTT7=
EXTT8=
EXTT9=
EXTT10=
EXTT11=
EXTT12=
EXTT13=
PLAYORDER=
